<?xml version="1.0" encoding="UTF-8" standalone="no"?>
<!-- Created with Inkscape (http://www.inkscape.org/) -->

<svg
   xmlns:dc="http://purl.org/dc/elements/1.1/"
   xmlns:cc="http://creativecommons.org/ns#"
   xmlns:rdf="http://www.w3.org/1999/02/22-rdf-syntax-ns#"
   xmlns:svg="http://www.w3.org/2000/svg"
   xmlns="http://www.w3.org/2000/svg"
   xmlns:sodipodi="http://sodipodi.sourceforge.net/DTD/sodipodi-0.dtd"
   xmlns:inkscape="http://www.inkscape.org/namespaces/inkscape"
   width="273.7406"
   height="306"
   id="svg2"
   version="1.1"
   inkscape:version="0.48.3.1 r9886"
   sodipodi:docname="labels.svg">
  <defs
     id="defs4" />
  <sodipodi:namedview
     id="base"
     pagecolor="#ffffff"
     bordercolor="#666666"
     borderopacity="1.0"
     inkscape:pageopacity="0.0"
     inkscape:pageshadow="2"
     inkscape:zoom="2"
     inkscape:cx="72.982519"
     inkscape:cy="144.71842"
     inkscape:document-units="px"
     inkscape:current-layer="layer1"
     showgrid="true"
     inkscape:window-width="1280"
     inkscape:window-height="972"
     inkscape:window-x="0"
     inkscape:window-y="27"
     inkscape:window-maximized="1"
     inkscape:snap-global="true"
     fit-margin-top="20"
     fit-margin-left="20"
     fit-margin-right="20"
     fit-margin-bottom="20">
    <inkscape:grid
       type="xygrid"
       id="grid3083"
       empspacing="5"
       visible="true"
       enabled="true"
       snapvisiblegridlinesonly="true"
       originx="-17.353839px"
       originy="-846.22414px" />
  </sodipodi:namedview>
  <metadata
     id="metadata7">
    <rdf:RDF>
      <cc:Work
         rdf:about="">
        <dc:format>image/svg+xml</dc:format>
        <dc:type
           rdf:resource="http://purl.org/dc/dcmitype/StillImage" />
        <dc:title></dc:title>
      </cc:Work>
    </rdf:RDF>
  </metadata>
  <g
     inkscape:label="Layer 1"
     inkscape:groupmode="layer"
     id="layer1"
     transform="translate(-17.353839,99.86197)">
    <text
       xml:space="preserve"
       style="font-size:11.33158493px;font-style:italic;font-variant:normal;font-weight:normal;font-stretch:condensed;text-align:start;line-height:125%;letter-spacing:0px;word-spacing:0px;writing-mode:lr-tb;text-anchor:start;fill:#000000;fill-opacity:1;stroke:none;font-family:Roboto;-inkscape-font-specification:Roboto Italic Condensed"
       x="38.952877"
       y="115.56414"
       id="iso"
       sodipodi:linespacing="125%"
       inkscape:label="#text2985"
       inkscape:export-xdpi="90"
       inkscape:export-ydpi="90"><tspan
         sodipodi:role="line"
         x="38.952877"
         y="115.56414"
         id="tspan2991">ISO</tspan></text>
    <flowRoot
       xml:space="preserve"
       id="flowRoot2993"
       style="font-size:40px;font-style:normal;font-variant:normal;font-weight:500;font-stretch:normal;line-height:125%;letter-spacing:0px;word-spacing:0px;fill:#000000;fill-opacity:1;stroke:none;font-family:Untitled1;-inkscape-font-specification:Untitled1 Medium"
       transform="matrix(0.88666751,0,0,0.88666751,4.6397929,21.095485)"
       inkscape:export-xdpi="90"
       inkscape:export-ydpi="90"><flowRegion
         id="flowRegion2995"><rect
           id="rect2997"
           width="37.142857"
           height="50"
           x="145.71428"
           y="299.50504" /></flowRegion><flowPara
         id="flowPara2999" /></flowRoot>    <text
       sodipodi:linespacing="125%"
       id="oneover"
       y="136.16702"
       x="38.952877"
       style="font-size:11.33158493px;font-style:italic;font-variant:normal;font-weight:normal;font-stretch:condensed;text-align:start;line-height:125%;letter-spacing:0px;word-spacing:0px;writing-mode:lr-tb;text-anchor:start;fill:#000000;fill-opacity:1;stroke:none;font-family:Roboto;-inkscape-font-specification:Roboto Italic Condensed"
       xml:space="preserve"
       inkscape:label="#text3005"
       inkscape:export-xdpi="90"
       inkscape:export-ydpi="90"><tspan
         id="tspan3007"
         y="136.16702"
         x="38.952877"
         sodipodi:role="line">1/</tspan></text>
    <text
       xml:space="preserve"
       style="font-size:11.33158493px;font-style:italic;font-variant:normal;font-weight:normal;font-stretch:condensed;text-align:start;line-height:125%;letter-spacing:0px;word-spacing:0px;writing-mode:lr-tb;text-anchor:start;fill:#000000;fill-opacity:1;stroke:none;font-family:Roboto;-inkscape-font-specification:Roboto Italic Condensed"
       x="38.952877"
       y="159.86034"
       id="fover"
       sodipodi:linespacing="125%"
       inkscape:label="#text3009"
       inkscape:export-xdpi="90"
       inkscape:export-ydpi="90"><tspan
         sodipodi:role="line"
         x="38.952877"
         y="159.86034"
         id="tspan3011">ƒ/</tspan></text>
    <path
       inkscape:connector-curvature="0"
       id="ec"
       style="font-size:36px;font-style:normal;font-variant:normal;font-weight:500;font-stretch:normal;text-align:start;line-height:125%;letter-spacing:0px;word-spacing:0px;writing-mode:lr-tb;text-anchor:start;fill:#000000;fill-opacity:1;stroke:none;font-family:PentaxSymbols;-inkscape-font-specification:PentaxSymbols Medium"
       d="m 39.34368,171.62474 0,10.52924 10.529229,0 0,-10.52924 -10.529229,0 m 0.605428,0.60543 9.305211,0 -9.305211,9.30521 0,-9.30521 m 9.305211,7.56789 -4.909257,0 0,-1.39512 4.909257,0 0,1.39512 m -3.922139,-5.33043 0,1.39513 -1.750489,0 0,1.76364 -1.395122,0 0,-1.76364 -1.750481,0 0,-1.39513 1.750481,0 0,-1.73732 1.395122,0 0,1.73732 1.750489,0"
       inkscape:label="#path3013"
       inkscape:export-xdpi="90"
       inkscape:export-ydpi="90" />
    <path
       inkscape:connector-curvature="0"
       id="elock"
       style="font-size:36px;font-style:normal;font-variant:normal;font-weight:500;font-stretch:normal;text-align:start;line-height:125%;letter-spacing:0px;word-spacing:0px;writing-mode:lr-tb;text-anchor:start;fill:#1eb61e;fill-opacity:1;stroke:none;font-family:PentaxSymbols;-inkscape-font-specification:PentaxSymbols Medium"
       d="m 138.36896,141.29406 3.70429,6.384 3.67804,-2.128 -3.67804,-6.384 7.35605,0 0,-4.25601 -7.35605,0 3.67804,-6.384 -3.67804,-2.128 -3.70429,6.41028 -3.67803,-6.41028 -3.67803,2.128 3.67803,6.384 -7.38233,0 0,4.25601 7.38233,0 -3.67803,6.384 3.67803,2.128 3.67803,-6.384"
       inkscape:label="#path3025"
       inkscape:export-xdpi="90"
       inkscape:export-ydpi="90" />
    <path
       inkscape:connector-curvature="0"
       id="metering_mode_multi"
       style="font-size:36px;font-style:normal;font-variant:normal;font-weight:500;font-stretch:normal;text-align:start;line-height:125%;letter-spacing:0px;word-spacing:0px;writing-mode:lr-tb;text-anchor:start;fill:#1eb61e;fill-opacity:1;stroke:none;font-family:PentaxSymbols;-inkscape-font-specification:PentaxSymbols Medium"
       d="m 104.51542,128.00925 c 2.00186,1.86455 3.0028,4.16482 3.00283,6.90081 -3e-5,2.75628 -1.00097,5.06669 -3.00283,6.9312 l -4.774492,0 0,-0.9728 c 1.361252,-0.34452 2.452282,-1.06398 3.273082,-2.1584 0.84076,-1.09438 1.26116,-2.36106 1.26119,-3.8 -3e-5,-1.41864 -0.42043,-2.67519 -1.26119,-3.76961 -0.8208,-1.09439 -1.91183,-1.81383 -3.273082,-2.15839 l 0,-0.97281 4.774492,0 m -14.263417,-1.33759 c -1.86176,1.86455 -2.972796,4.10401 -3.333133,6.7184 l -4.654381,0 0,-9.12001 31.920031,0 0,9.12001 -4.68441,0 c -0.34035,-2.61439 -1.44139,-4.85385 -3.30311,-6.7184 -0.54053,-0.52692 -1.19114,-0.79038 -1.95183,-0.79041 l -12.041325,0 c -0.760734,3e-5 -1.411343,0.26349 -1.951842,0.79041 m 11.921217,8.2384 c -2e-5,-1.09439 -0.39039,-2.02665 -1.1711,-2.7968 -0.76074,-0.7904 -1.681598,-1.18559 -2.762602,-1.1856 -1.101041,1e-5 -2.041936,0.3952 -2.822653,1.1856 -0.760733,0.77015 -1.141086,1.70241 -1.141073,2.7968 -1.3e-5,1.11468 0.38034,2.06722 1.141073,2.85761 0.780717,0.77014 1.721612,1.1552 2.822653,1.15519 1.081004,1e-5 2.001862,-0.38505 2.762602,-1.15519 0.78071,-0.79039 1.17108,-1.74293 1.1711,-2.85761 m -10.239638,6.9312 c -2.001896,-1.86451 -3.002834,-4.17492 -3.002814,-6.9312 -2e-5,-2.73599 1.000918,-5.03626 3.002814,-6.90081 l 4.774501,0 0,0.97281 c -1.361302,0.34456 -2.462336,1.064 -3.303115,2.15839 -0.82079,1.09442 -1.231168,2.35097 -1.231155,3.76961 -1.3e-5,1.43894 0.410365,2.70562 1.231155,3.8 0.840779,1.09442 1.941813,1.81388 3.303115,2.1584 l 0,0.9728 -4.774501,0 m 17.566528,-5.38081 c -0.34035,2.61443 -1.44139,4.84376 -3.30311,6.68802 -0.54053,0.5472 -1.19114,0.82079 -1.95183,0.82079 l -12.041325,0 c -0.760734,0 -1.411343,-0.27359 -1.951842,-0.82079 -1.86176,-1.84426 -2.972796,-4.07359 -3.333133,-6.68802 l -4.654381,0 0,9.08962 31.920031,0 0,-9.08962 -4.68441,0"
       inkscape:label="#path3029"
       inkscape:export-xdpi="90"
       inkscape:export-ydpi="90" />
    <path
       inkscape:connector-curvature="0"
       id="metering_mode_center"
       style="font-size:36px;font-style:normal;font-variant:normal;font-weight:500;font-stretch:normal;text-align:start;line-height:125%;letter-spacing:0px;word-spacing:0px;writing-mode:lr-tb;text-anchor:start;fill:#fff3f3;fill-opacity:0.94117647;stroke:none;font-family:PentaxSymbols;-inkscape-font-specification:PentaxSymbols Medium"
       d="m 103.74219,168.55781 c 1.9084,1.74295 2.86262,3.89122 2.86265,6.44481 -3e-5,2.55361 -0.95425,4.69175 -2.86265,6.4144 l -4.555606,0 0,-0.91199 c 1.292786,-0.32426 2.339336,-0.99306 3.139686,-2.0064 0.80027,-1.01333 1.20043,-2.17866 1.20046,-3.49601 -3e-5,-1.33758 -0.40019,-2.51305 -1.20046,-3.5264 -0.80035,-1.01332 -1.8469,-1.68211 -3.139686,-2.0064 l 0,-0.91201 4.555606,0 m -2.24702,6.44481 c -3e-5,-1.03359 -0.3694,-1.91519 -1.10812,-2.6448 -0.718248,-0.72959 -1.600643,-1.09438 -2.647167,-1.09441 -1.046583,3e-5 -1.939246,0.36482 -2.677968,1.09441 -0.718247,0.72961 -1.077353,1.61121 -1.077333,2.6448 -2e-5,1.01335 0.359086,1.88482 1.077333,2.61441 0.738722,0.72961 1.631385,1.0944 2.677968,1.0944 1.046524,0 1.928919,-0.36479 2.647167,-1.0944 0.73872,-0.72959 1.10809,-1.60106 1.10812,-2.61441 m -9.757617,6.4144 c -1.887921,-1.72265 -2.831869,-3.86079 -2.831862,-6.4144 -7e-6,-2.55359 0.943941,-4.70186 2.831862,-6.44481 l 4.55561,0 0,0.91201 c -1.292827,0.32429 -2.339391,0.99308 -3.139678,2.0064 -0.800328,1.01335 -1.200485,2.18882 -1.200465,3.5264 -1.3e-5,1.31735 0.400137,2.48268 1.200465,3.49601 0.800287,1.01334 1.846851,1.68214 3.139678,2.0064 l 0,0.91199 -4.55561,0 m -9.942308,-17.05442 0,21.28003 31.920035,0 0,-21.28003 -31.920035,0 m 30.411765,1.45921 0,18.33122 -28.934268,0 0,-18.33122 28.934268,0"
       inkscape:label="#path3031"
       inkscape:export-xdpi="90"
       inkscape:export-ydpi="90" />
    <path
       inkscape:connector-curvature="0"
       id="metering_mode_spot"
       style="font-size:36px;font-style:normal;font-variant:normal;font-weight:500;font-stretch:normal;text-align:start;line-height:125%;letter-spacing:0px;word-spacing:0px;writing-mode:lr-tb;text-anchor:start;fill:#fff3f3;fill-opacity:0.94117647;stroke:none;font-family:PentaxSymbols;-inkscape-font-specification:PentaxSymbols Medium"
       d="m 141.40805,175.49802 c -4e-5,-1.03358 -0.3694,-1.90506 -1.10813,-2.61441 -0.71826,-0.72958 -1.60063,-1.09438 -2.64718,-1.09439 -1.04657,1e-5 -1.93922,0.36481 -2.67795,1.09439 -0.73876,0.70935 -1.10814,1.58083 -1.10812,2.61441 -2e-5,1.03361 0.36936,1.91521 1.10812,2.6448 0.73873,0.72961 1.63138,1.09441 2.67795,1.0944 1.04655,1e-5 1.92892,-0.36479 2.64718,-1.0944 0.73873,-0.72959 1.10809,-1.61119 1.10813,-2.6448 m -19.73071,-10.64001 0,21.28002 31.92004,0 0,-21.28002 -31.92004,0 m 30.44253,1.48959 0,18.30083 -28.93425,0 0,-18.30083 28.93425,0"
       inkscape:label="#path3033"
       inkscape:export-xdpi="90"
       inkscape:export-ydpi="90" />
    <path
       inkscape:connector-curvature="0"
       id="flash_mode_manual_redeye"
       style="font-size:36px;font-style:normal;font-variant:normal;font-weight:500;font-stretch:normal;text-align:start;line-height:125%;letter-spacing:0px;word-spacing:0px;writing-mode:lr-tb;text-anchor:start;fill:#fff3f3;fill-opacity:0.94117647;stroke:none;font-family:PentaxSymbols;-inkscape-font-specification:PentaxSymbols Medium"
       d="m 136.0652,60.990357 -2.0216,6.532967 3.59632,0 -6.87345,6.894733 -2.91536,-6.894733 2.61744,0 1.42577,-4.681604 -6.46913,0 2.97921,-9.66113 3.91551,-0.04256 -2.38336,7.852328 6.12865,0 m 9.68242,3.128162 c 1.447,1.2e-5 2.85859,0.461073 4.23472,1.383203 1.29095,0.879579 2.28401,1.993235 2.9792,3.340963 0.0283,0.05674 0.0426,0.12768 0.0426,0.212801 -2e-5,0.08513 -0.0142,0.156057 -0.0426,0.2128 -0.73773,1.390293 -1.73081,2.518138 -2.9792,3.38353 -1.33357,0.922128 -2.74516,1.3832 -4.23472,1.3832 -2.82317,0 -5.22781,-1.588911 -7.21394,-4.76673 -0.0568,-0.08511 -0.0851,-0.156049 -0.0851,-0.2128 0,-0.04256 0.0284,-0.113489 0.0851,-0.212801 1.87262,-3.149438 4.27728,-4.724154 7.21394,-4.724166 m 0,8.958883 c 2.55358,0 4.49006,-1.2768 5.80944,-3.830396 0.0426,-0.07093 0.0638,-0.141863 0.0638,-0.2128 -1e-5,-0.04256 -0.0213,-0.113489 -0.0638,-0.212803 -0.56749,-1.163299 -1.36196,-2.07834 -2.38336,-2.745121 -1.00727,-0.680956 -2.1493,-1.021435 -3.42608,-1.02144 -1.26263,5e-6 -2.41885,0.340484 -3.46866,1.02144 -1.03563,0.680967 -1.82299,1.596008 -2.36208,2.745121 -0.0283,0.07093 -0.0426,0.141875 -0.0426,0.212803 -1e-5,0.08513 0.0142,0.156058 0.0426,0.2128 0.53909,1.163313 1.32645,2.092537 2.36208,2.787676 1.03561,0.695151 2.19182,1.04272 3.46866,1.04272 m 0,-6.93728 c 0.80862,7e-6 1.48956,0.283741 2.04288,0.851201 0.56743,0.553286 0.85116,1.234247 0.8512,2.042883 -4e-5,0.822833 -0.28377,1.517973 -0.8512,2.08544 -0.55332,0.553276 -1.23426,0.829916 -2.04288,0.829916 -0.82285,0 -1.51799,-0.283729 -2.08544,-0.851196 -0.5533,-0.567467 -0.82994,-1.255514 -0.82992,-2.06416 -2e-5,-0.808636 0.28371,-1.489597 0.8512,-2.042883 0.56745,-0.56746 1.2555,-0.851194 2.06416,-0.851201 m -0.0213,3.809124 c 0.25532,6e-6 0.46812,-0.08511 0.63838,-0.25536 0.17022,-0.170234 0.25532,-0.383034 0.25536,-0.6384 -4e-5,-0.241169 -0.0922,-0.446876 -0.27664,-0.617121 -0.17026,-0.170236 -0.37595,-0.255355 -0.6171,-0.255362 -0.24121,7e-6 -0.45401,0.08513 -0.63842,0.255362 -0.17026,0.170245 -0.25538,0.375952 -0.25534,0.617121 -4e-5,0.255366 0.0851,0.468166 0.25534,0.6384 0.17022,0.170246 0.38304,0.255366 0.63842,0.25536"
       inkscape:label="#path3051"
       inkscape:export-xdpi="90"
       inkscape:export-ydpi="90" />
    <path
       inkscape:connector-curvature="0"
       id="flash_mode_trailing_curtain"
       style="font-size:36px;font-style:normal;font-variant:normal;font-weight:500;font-stretch:normal;text-align:start;line-height:125%;letter-spacing:0px;word-spacing:0px;writing-mode:lr-tb;text-anchor:start;fill:#fff3f3;fill-opacity:0.94117647;stroke:none;font-family:PentaxSymbols;-inkscape-font-specification:PentaxSymbols Medium"
       d="m 90.348628,88.39903 c 0.893753,1.3e-5 1.34064,-0.255347 1.34064,-0.76608 0,-0.326289 -0.340487,-0.560369 -1.02144,-0.702253 -1.092382,-0.226965 -1.716585,-0.375925 -1.87264,-0.44688 -0.68096,-0.283717 -1.021447,-0.773157 -1.021447,-1.468322 0,-0.624195 0.269551,-1.099444 0.808633,-1.42576 0.439798,-0.255332 1.000174,-0.383012 1.681134,-0.383038 0.666762,2.6e-5 1.23424,0.148986 1.7024,0.44688 0.539082,0.340506 0.80864,0.829946 0.80864,1.468318 l -1.29808,0 c -0.07093,-0.595812 -0.510727,-0.893732 -1.319367,-0.893758 -0.751889,2.6e-5 -1.127833,0.234106 -1.127833,0.70224 0,0.340506 0.340466,0.581674 1.02144,0.723518 1.14912,0.241196 1.787513,0.390156 1.9152,0.44688 0.68096,0.269565 1.02144,0.730637 1.02144,1.383215 0,0.666782 -0.269545,1.170413 -0.80864,1.51088 -0.46816,0.283742 -1.049816,0.425613 -1.74496,0.4256 -1.844278,1.3e-5 -2.7664,-0.659667 -2.7664,-1.97904 l 1.298066,0 c 0.01417,0.638413 0.475269,0.957613 1.383214,0.9576 m 8.23536,-0.19152 0,1.064 -4.575194,0 0,-5.915853 1.36192,0 0,4.851853 3.213274,0 m 3.745282,1.21296 c -0.95051,1.3e-5 -1.70949,-0.27664 -2.27696,-0.82992 -0.553282,-0.553267 -0.829922,-1.312258 -0.829922,-2.276975 0,-0.964675 0.27664,-1.723652 0.829922,-2.27696 0.56747,-0.553252 1.32645,-0.829892 2.27696,-0.829918 0.95052,2.6e-5 1.7024,0.276666 2.25569,0.829918 0.56746,0.553308 0.85119,1.312285 0.85119,2.27696 0,0.964717 -0.28373,1.723708 -0.85119,2.276975 -0.55329,0.55328 -1.30517,0.829933 -2.25569,0.82992 m 0,-5.171055 c -0.58166,2.8e-5 -1.02144,0.198636 -1.31935,0.595842 -0.29792,0.383066 -0.44689,0.872506 -0.44689,1.468318 0,0.595868 0.14187,1.078219 0.42561,1.447055 0.3121,0.411422 0.75897,0.617133 1.34063,0.61712 0.58166,1.3e-5 1.02854,-0.205698 1.34065,-0.61712 0.26954,-0.368836 0.40432,-0.851187 0.40432,-1.447055 0,-0.595812 -0.13478,-1.078164 -0.40432,-1.447038 -0.31211,-0.411397 -0.75899,-0.617094 -1.34065,-0.617122 m 6.27761,5.022095 -1.25552,0 -1.83008,-5.915853 1.44703,0 c 0.25537,0.964714 0.59586,2.404666 1.02145,4.319853 l 0.0213,0 c 0.2128,-1.106547 0.51071,-2.546499 0.89375,-4.319853 l 1.42577,0 c 0.22698,0.964714 0.54618,2.404666 0.95759,4.319853 l 0.0213,0 c 0.12768,-0.610018 0.48234,-2.04997 1.064,-4.319853 l 1.36192,0 -1.8088,5.915853 -1.29808,0 c -0.24119,-1.021427 -0.57458,-2.560689 -1.00017,-4.617773 l -0.0213,0 c -0.11348,0.624234 -0.44688,2.163484 -1.00016,4.617773 m 2.48977,9.63984 3.55375,0 -6.8096,5.53281 -2.89407,-5.53281 2.59615,0 1.42577,-3.74528 -6.42657,0 1.91521,-5.0008 c 0.51071,-0.212787 0.82992,-0.524898 0.95759,-0.93632 l 0.63841,0 0.0638,0.61712 0.65968,0.6384 1.44706,0 -1.21297,3.192 6.08608,0 -2.00032,5.23488 m -17.790089,-1.1704 0,-3.6176 9.703679,5.277439 -9.703679,5.085941 0,-3.48994 -6.66064,3.48994 0,-10.36338 6.66064,3.6176 m -5.320013,4.23474 4.979533,-2.61746 -4.979533,-2.702561 0,5.320021"
       inkscape:label="#path3053"
       inkscape:export-xdpi="90"
       inkscape:export-ydpi="90" />
    <path
       inkscape:connector-curvature="0"
       id="flash_mode_wireless"
       style="font-size:36px;font-style:normal;font-variant:normal;font-weight:500;font-stretch:normal;text-align:start;line-height:125%;letter-spacing:0px;word-spacing:0px;writing-mode:lr-tb;text-anchor:start;fill:#fff3f3;fill-opacity:0.94117647;stroke:none;font-family:PentaxSymbols;-inkscape-font-specification:PentaxSymbols Medium"
       d="m 150.62783,98.804963 2.06416,-6.490413 -6.12864,-0.02128 2.38336,-7.831055 -3.87296,0.04256 -3.0005,9.618575 6.44784,0.02128 -1.44704,4.660333 -2.59616,0 2.8728,6.894727 6.87346,-6.873447 -3.59632,-0.02128 m -12.87442,-7.767214 -1.65984,-6.618094 -2.29825,0 -1.72368,6.511694 -1.40448,-6.511694 -1.97904,0 2.2344,9.469615 2.10673,0 1.87263,-7.08624 1.87265,7.08624 2.06416,0 2.27696,-9.469615 -1.9365,0 -1.42574,6.618094"
       inkscape:label="#path3055"
       inkscape:export-xdpi="90"
       inkscape:export-ydpi="90" />
    <path
       d="m 108.62815,60.990357 -2.0216,6.532967 3.59632,0 -6.87345,6.894733 -2.91536,-6.894733 2.61744,0 1.42577,-4.681604 -6.469122,0 2.979202,-9.66113 3.91551,-0.04256 -2.38336,7.852328 6.12865,0"
       style="font-size:36px;font-style:normal;font-variant:normal;font-weight:500;font-stretch:normal;text-align:start;line-height:125%;letter-spacing:0px;word-spacing:0px;writing-mode:lr-tb;text-anchor:start;fill:#1eb61e;fill-opacity:1;stroke:none;font-family:PentaxSymbols;-inkscape-font-specification:PentaxSymbols Medium"
       id="flash_mode_auto"
       inkscape:connector-curvature="0"
       sodipodi:nodetypes="cccccccccccc"
       inkscape:label="#path3085"
       inkscape:export-xdpi="90"
       inkscape:export-ydpi="90" />
  </g>
</svg>
